<svg width="163" height="23" viewBox="0 0 163 23" fill="none" xmlns="http://www.w3.org/2000/svg">
<path d="M23.904 7.96C23.904 9.944 23.3707 11.6827 22.304 13.176C21.2587 14.648 19.776 15.7467 17.856 16.472L21.6 23H13.76L10.592 17.368H8.736L7.616 23H0.064L4.544 0.599998H14.592C17.536 0.599998 19.8187 1.25067 21.44 2.552C23.0827 3.832 23.904 5.63467 23.904 7.96ZM16.256 8.696C16.256 7.18133 15.3173 6.424 13.44 6.424H10.912L9.856 11.672H12.96C14.0053 11.672 14.816 11.416 15.392 10.904C15.968 10.3707 16.256 9.63467 16.256 8.696ZM28.3878 0.599998H35.9398L31.4598 23H23.9078L28.3878 0.599998ZM39.5753 0.599998H49.6873C52.0339 0.599998 54.0606 0.983999 55.7673 1.752C57.4953 2.52 58.8179 3.61867 59.7353 5.048C60.6526 6.47733 61.1113 8.16267 61.1113 10.104C61.1113 12.6853 60.5139 14.9573 59.3193 16.92C58.1246 18.8613 56.4606 20.3653 54.3273 21.432C52.2153 22.4773 49.8046 23 47.0953 23H35.0953L39.5753 0.599998ZM47.3513 17.112C49.2926 17.112 50.7966 16.504 51.8633 15.288C52.9513 14.0507 53.4953 12.472 53.4953 10.552C53.4953 9.25067 53.0899 8.248 52.2793 7.544C51.4899 6.84 50.3379 6.488 48.8233 6.488H45.9433L43.8313 17.112H47.3513ZM72.2848 6.296L71.7728 8.92H81.2448L80.1568 14.36H70.6528L70.0768 17.304H81.3088L80.1568 23H61.5328L66.0128 0.599998H84.2208L83.0688 6.296H72.2848ZM106.904 7.96C106.904 9.944 106.371 11.6827 105.304 13.176C104.259 14.648 102.776 15.7467 100.856 16.472L104.6 23H96.76L93.592 17.368H91.736L90.616 23H83.064L87.544 0.599998H97.592C100.536 0.599998 102.819 1.25067 104.44 2.552C106.083 3.832 106.904 5.63467 106.904 7.96ZM99.256 8.696C99.256 7.18133 98.3173 6.424 96.44 6.424H93.912L92.856 11.672H95.96C97.0053 11.672 97.816 11.416 98.392 10.904C98.968 10.3707 99.256 9.63467 99.256 8.696ZM111.388 0.599998H118.94L114.46 23H106.908L111.388 0.599998ZM140.911 5.24L128.495 17.144H139.055L137.871 23H117.295L118.223 18.36L130.639 6.456H120.911L122.095 0.599998H141.839L140.911 5.24ZM150.816 6.296L150.304 8.92H159.776L158.688 14.36H149.184L148.608 17.304H159.84L158.688 23H140.064L144.544 0.599998H162.752L161.6 6.296H150.816Z" fill="#8F5DE8"/>
</svg>
